<svg width="37" height="40" viewBox="0 0 37 40" fill="none" xmlns="http://www.w3.org/2000/svg">
<path d="M0 14.9774V7.53783C0.152905 7.49668 0.305809 7.41947 0.459297 7.41947C3.18182 7.41214 5.90434 7.41947 8.62977 7.41214C9.88102 7.40876 11.0955 7.59644 12.2295 8.10763C15.4358 9.55329 17.2706 11.9819 17.4883 15.3996C17.6243 17.5328 17.5233 19.6802 17.5309 21.8208C17.5268 21.9905 17.5387 22.1603 17.5665 22.328C17.6102 22.542 17.7297 22.7346 17.9045 22.8727C18.0792 23.0109 18.2984 23.0859 18.5242 23.0849C18.7498 23.0787 18.9658 22.9956 19.134 22.8504C19.3022 22.7052 19.4118 22.5071 19.4434 22.2914C19.4643 22.1331 19.4733 21.9735 19.4702 21.814C19.4702 17.1372 19.4702 12.4606 19.4702 7.78412V7.42511C19.5765 7.41947 19.6342 7.41383 19.6914 7.41383C22.5511 7.41383 25.4108 7.39467 28.2704 7.42285C32.4286 7.464 35.8363 10.1208 36.7911 14.0272C36.8722 14.3597 36.9311 14.6973 37 15.0327V24.2206C36.8372 24.2617 36.6749 24.339 36.5121 24.339C33.4384 24.3461 30.3648 24.3461 27.2911 24.339C27.0618 24.339 26.9567 24.3953 26.8826 24.6208C25.5409 28.8422 21.1119 31.3784 16.6625 30.4096C13.3634 29.6904 11.1895 27.7043 10.1115 24.6101C10.0468 24.4229 9.98024 24.3283 9.75613 24.3361C9.26999 24.3536 8.78326 24.3401 8.29712 24.3435C8.19355 24.3524 8.09065 24.3675 7.98897 24.3886C8.25568 25.0931 8.4652 25.7688 8.75992 26.408C10.7383 30.688 15.6891 33.2045 20.4087 32.3134C23.9763 31.6371 26.557 29.691 28.1706 26.5517C28.3037 26.293 28.4578 26.2011 28.7507 26.2022C30.871 26.2124 32.9912 26.2079 35.112 26.2079C35.4529 26.2079 35.7931 26.2006 36.1333 26.2113C36.4006 26.2203 36.4958 26.351 36.4252 26.6024C36.3259 26.9552 36.2261 27.3086 36.1071 27.6552C33.3671 35.6263 25.6139 40.6002 16.9391 39.9419C13.9488 39.7164 11.1679 38.8361 8.65195 37.2642C3.84149 34.2594 1.01178 30.013 0.162826 24.525C0.109718 24.1783 0.0542753 23.8317 0 23.4879V16.9501C0.131895 16.9061 0.262622 16.8317 0.396852 16.8238C0.716084 16.8047 1.03882 16.8176 1.35863 16.8176C4.04322 16.8176 6.72255 16.8131 9.4048 16.8238C9.68493 16.8238 9.75496 16.7365 9.73571 16.4857C9.68201 15.6594 9.07973 15.0919 8.21833 15.0907C5.63354 15.0907 3.04875 15.0907 0.463966 15.0851C0.308727 15.0817 0.154655 15.0124 0 14.9774ZM28.2395 17.1073C28.5792 17.1073 28.9188 17.1073 29.2579 17.1073C29.433 17.1073 29.5304 17.0386 29.5275 16.8571C29.5228 16.5386 29.5392 16.2191 29.5199 15.9018C29.475 15.1646 28.8885 14.6393 28.1222 14.6336C27.8304 14.6336 27.5386 14.6415 27.2468 14.6336C27.0326 14.6252 26.9521 14.708 26.955 14.9154C26.9616 15.5523 26.9616 16.1892 26.955 16.8261C26.955 17.0324 27.0408 17.1158 27.2468 17.1118C27.58 17.1017 27.9098 17.1056 28.2395 17.1056V17.1073Z" fill="#29AFBD"/>
<path d="M25.1694 0C25.2662 0.033308 25.3618 0.0733904 25.4615 0.0999239C27.005 0.506959 27.9395 1.88331 27.7175 3.43072C27.5192 4.82288 26.1798 5.91753 24.6523 5.92317C23.0209 5.92938 21.3871 5.92317 19.7581 5.92317H19.5277V3.79767H21.5747C21.5747 3.31047 21.4987 2.84811 21.589 2.41737C21.8543 1.14376 22.6908 0.355661 24.0242 0.0530669C24.071 0.03897 24.1165 0.0212206 24.1602 0L25.1694 0ZM24.6416 3.78864C24.8136 3.78674 24.9811 3.73662 25.1232 3.64455C25.2653 3.55247 25.3757 3.42256 25.4405 3.27108C25.5052 3.1196 25.5216 2.95332 25.4873 2.79306C25.4531 2.63281 25.3699 2.48573 25.2482 2.37026C25.1264 2.25478 24.9715 2.17607 24.8029 2.14397C24.6343 2.11187 24.4595 2.12783 24.3004 2.18983C24.1412 2.25184 24.0049 2.35713 23.9085 2.49252C23.812 2.6279 23.7598 2.78735 23.7582 2.95086C23.7584 3.17291 23.8512 3.38583 24.0162 3.5429C24.1813 3.69996 24.4052 3.78834 24.6387 3.78864H24.6416Z" fill="#F7A506"/>
<path d="M13.9273 0.00202256C14.863 -0.00197943 15.762 0.358156 16.4267 1.00325C17.0914 1.64834 17.4673 2.52558 17.4718 3.44209C17.4849 5.3411 15.8962 6.90781 13.9535 6.91059C13.4792 6.92995 13.0058 6.85537 12.5616 6.69133C12.1174 6.52729 11.7115 6.27716 11.3683 5.9559C11.0251 5.63465 10.7516 5.24888 10.5642 4.82167C10.3768 4.39446 10.2793 3.93461 10.2775 3.46963C10.2757 3.00465 10.3698 2.5441 10.554 2.11554C10.7381 1.68698 11.0087 1.29923 11.3495 0.975486C11.6902 0.651743 12.0942 0.398666 12.5371 0.2314C12.98 0.0641347 13.4529 -0.0138809 13.9273 0.00202256Z" fill="#F7A506"/>
</svg>
